<?xml version="1.0" encoding="UTF-8"?> <svg xmlns="http://www.w3.org/2000/svg" width="141" height="120" viewBox="0 0 141 120" fill="none"><g opacity="0.9"><path d="M39.96 44.1801H35V68.9101H39.96V44.1801Z" fill="#1C1C1C"></path><path d="M45.73 56.5401L55.03 44.1801H48.91L40.21 56.5401L49.13 68.9101H55.67L45.73 56.5401Z" fill="#1C1C1C"></path><path d="M72.5901 44.23L77.5101 43.01V68.97H72.5901V44.23Z" fill="#1C1C1C"></path><path d="M80.6101 44.23L85.5301 43.01V68.97H80.6101V44.23Z" fill="#1C1C1C"></path><path d="M106 52.48L99.0901 68.97L95.6901 76.99H90.8701L94.4601 68.78L87.6101 52.48H92.6201L96.8101 63.2L100.99 52.48H106Z" fill="#1C1C1C"></path><path d="M70.1501 60.4C70.1501 55.44 67.1001 52.11 62.5601 52.11C57.7901 52.11 54.5901 55.55 54.5901 60.66C54.5901 65.77 57.9301 69.28 63.0901 69.28C65.7501 69.28 68.2301 68.38 69.7301 66.87L70.0101 66.59L67.6101 63.67L67.2601 64C66.3001 64.9 64.8201 65.42 63.2101 65.42C60.9801 65.42 59.4901 64.29 59.0101 62.23H70.1601V60.39L70.1501 60.4ZM59.1101 58.6C59.6301 56.87 60.8501 55.93 62.5601 55.93C64.1401 55.93 65.2501 56.88 65.6901 58.6H59.1101Z" fill="#1C1C1C"></path><path d="M102.66 67.6801H102.92L103.35 68.3701H103.66L103.19 67.6601C103.31 67.6501 103.42 67.6101 103.5 67.5401C103.58 67.4701 103.63 67.3601 103.63 67.2201C103.63 67.0601 103.58 66.9401 103.48 66.8601C103.38 66.7901 103.22 66.7501 103.02 66.7501H102.38V68.3701H102.66V67.6801ZM102.66 67.4501V66.9801H102.99C102.99 66.9801 103.07 66.9801 103.12 66.9801C103.16 66.9801 103.2 66.9901 103.24 67.0101L103.33 67.0801C103.33 67.0801 103.36 67.1501 103.36 67.2001C103.36 67.2601 103.35 67.3101 103.33 67.3401L103.25 67.4201C103.25 67.4201 103.17 67.4501 103.13 67.4501C103.08 67.4501 103.03 67.4501 102.98 67.4501H102.67H102.66ZM104.32 66.9301C104.24 66.7501 104.13 66.6001 104 66.4701C103.86 66.3401 103.71 66.2401 103.53 66.1701C103.35 66.1001 103.16 66.0601 102.96 66.0601C102.76 66.0601 102.57 66.1001 102.39 66.1701C102.21 66.2401 102.05 66.3401 101.91 66.4701C101.77 66.6001 101.67 66.7501 101.59 66.9301C101.51 67.1101 101.47 67.3101 101.47 67.5301C101.47 67.7501 101.51 67.9301 101.58 68.1101C101.65 68.2901 101.76 68.4401 101.89 68.5701C102.02 68.7001 102.18 68.8001 102.36 68.8801C102.54 68.9501 102.74 68.9901 102.96 68.9901C103.16 68.9901 103.35 68.9501 103.53 68.8801C103.71 68.8101 103.87 68.7101 104 68.5801C104.14 68.4501 104.24 68.3001 104.32 68.1201C104.4 67.9401 104.44 67.7401 104.44 67.5201C104.44 67.3001 104.4 67.1001 104.32 66.9201M104.03 68.0101C103.97 68.1601 103.89 68.2801 103.78 68.3901C103.67 68.5001 103.55 68.5801 103.41 68.6401C103.27 68.7001 103.12 68.7301 102.96 68.7301C102.78 68.7301 102.62 68.7001 102.47 68.6301C102.33 68.5701 102.2 68.4801 102.1 68.3701C102 68.2601 101.92 68.1301 101.87 67.9901C101.82 67.8401 101.79 67.6901 101.79 67.5201C101.79 67.3401 101.82 67.1801 101.88 67.0301C101.94 66.8801 102.02 66.7501 102.13 66.6501C102.24 66.5401 102.36 66.4601 102.5 66.4001C102.64 66.3401 102.8 66.3101 102.96 66.3101C103.12 66.3101 103.27 66.3401 103.41 66.4001C103.55 66.4601 103.67 66.5401 103.78 66.6501C103.89 66.7601 103.97 66.8901 104.03 67.0301C104.09 67.1801 104.12 67.3401 104.12 67.5201C104.12 67.7001 104.09 67.8601 104.03 68.0101Z" fill="#1C1C1C"></path></g></svg> 