<?xml version="1.0" encoding="UTF-8"?> <svg xmlns="http://www.w3.org/2000/svg" width="227" height="120" viewBox="0 0 227 120" fill="none"><g opacity="0.9"><g clip-path="url(#clip0_6406_17438)"><path d="M23.24 77.5499H17.95V56.183C17.95 47.741 18.522 45.744 20.242 44.03C21.35 42.926 22.976 42.455 25.683 42.455H33.765C36.479 42.455 38.107 42.926 39.211 44.029C40.928 45.75 41.5 47.75 41.5 56.188C41.5 64.6259 40.93 66.632 39.215 68.35C38.106 69.45 36.478 69.926 33.77 69.926H25.519C24.7559 69.9258 23.994 69.8669 23.24 69.75V77.5499ZM26.34 47.202C24.774 47.202 24.366 47.33 24.001 47.69C23.484 48.212 23.241 49.22 23.241 56.182C23.241 63.399 23.528 64.207 24.001 64.682C24.371 65.025 24.778 65.168 26.34 65.168H33.102C34.681 65.168 35.0879 65.041 35.441 64.682C35.962 64.166 36.208 63.16 36.208 56.182C36.208 48.972 35.92 48.163 35.446 47.69C35.089 47.353 34.667 47.202 33.107 47.202H26.34ZM210.172 69.921H204.882V56.183C204.882 48.994 204.582 48.153 204.117 47.691C203.754 47.347 203.348 47.203 201.776 47.203H195.01C193.442 47.203 193.034 47.331 192.671 47.691C192.153 48.214 191.909 49.222 191.909 56.183V69.916H186.616V56.178C186.616 47.74 187.188 45.743 188.906 44.025C190.01 42.921 191.637 42.45 194.35 42.45H202.437C205.145 42.45 206.774 42.921 207.883 44.024C209.598 45.739 210.17 47.737 210.175 56.183V69.921H210.172ZM100.825 69.921H95.535V56.183C95.535 48.971 95.2479 48.163 94.7749 47.691C94.4119 47.347 94.006 47.203 92.436 47.203H85.668C84.1 47.203 83.6919 47.331 83.3289 47.691C82.811 48.214 82.5669 49.222 82.5669 56.183V69.916H77.28V56.178C77.28 47.736 77.851 45.739 79.565 44.025C80.668 42.921 82.295 42.45 85.005 42.45H93.097C95.807 42.45 97.434 42.921 98.5379 44.024C100.25 45.75 100.825 47.744 100.825 56.183V69.921ZM172.766 69.921H164.679C161.987 69.921 160.36 69.449 159.238 68.341C157.522 66.626 156.95 64.628 156.95 56.183C156.95 48.141 157.377 45.87 159.237 44.03C160.344 42.93 161.971 42.456 164.678 42.456H172.765C175.473 42.456 177.102 42.927 178.211 44.03C179.929 45.748 180.501 47.746 180.501 56.183C180.501 64.2299 180.073 66.502 178.211 68.342C177.104 69.45 175.476 69.921 172.766 69.921ZM165.34 47.203C163.769 47.203 163.364 47.347 163.001 47.691C162.539 48.153 162.236 48.991 162.236 56.183C162.236 63.157 162.483 64.162 163.006 64.675C163.355 65.038 163.76 65.166 165.34 65.166H172.102C173.668 65.166 174.09 65.016 174.441 64.68C174.915 64.2059 175.203 63.398 175.203 56.18C175.203 49.219 174.959 48.211 174.441 47.688C174.083 47.328 173.675 47.2 172.102 47.2L165.34 47.203ZM143.111 69.921H135.022C132.308 69.921 130.68 69.449 129.578 68.341C127.858 66.621 127.286 64.623 127.286 56.182C127.286 48.138 127.714 45.866 129.578 44.029C130.678 42.929 132.31 42.455 135.022 42.455H143.111C145.82 42.455 147.448 42.926 148.555 44.029C150.271 45.745 150.842 47.742 150.842 56.182C150.842 64.228 150.415 66.501 148.555 68.341C147.45 69.45 145.822 69.921 143.111 69.921ZM135.681 47.203C134.123 47.203 133.698 47.354 133.336 47.691C132.863 48.164 132.576 48.971 132.576 56.183C132.576 63.153 132.819 64.159 133.336 64.675C133.695 65.038 134.103 65.166 135.681 65.166H142.45C144.007 65.166 144.429 65.016 144.784 64.68C145.247 64.217 145.551 63.375 145.551 56.18C145.551 49.217 145.305 48.209 144.784 47.688C144.426 47.328 144.019 47.2 142.45 47.2L135.681 47.203ZM121.904 69.921H117.859C115.149 69.921 113.52 69.449 112.413 68.341C110.697 66.625 110.126 64.6609 110.126 56.416V47.081H105.338V42.45H122.026V47.081H115.426V56.45C115.426 63.422 115.726 64.245 116.186 64.704C116.544 65.041 116.967 65.192 118.525 65.192H121.903V69.925L121.904 69.921ZM63.434 69.921H55.35C52.639 69.921 51.011 69.449 49.906 68.341C48.19 66.625 47.619 64.627 47.619 56.182C47.619 48.14 48.0459 45.869 49.906 44.029C51.0079 42.926 52.637 42.455 55.35 42.455H63.4389C66.1479 42.455 67.776 42.926 68.8829 44.029C70.5979 45.75 71.17 47.75 71.17 56.183C71.17 64.232 70.742 66.504 68.878 68.342C67.776 69.45 66.15 69.921 63.434 69.921ZM56.0089 47.203C54.438 47.203 54.033 47.347 53.67 47.691C53.196 48.165 52.908 48.973 52.908 56.183C52.908 63.163 53.15 64.167 53.664 64.675C54.018 65.038 54.425 65.166 56.003 65.166H62.77C64.33 65.166 64.75 65.016 65.104 64.68C65.567 64.217 65.871 63.375 65.871 56.18C65.871 49.217 65.625 48.209 65.104 47.688C64.7459 47.328 64.339 47.2 62.77 47.2L56.0089 47.203Z" fill="#1C1C1C"></path></g></g><defs><clipPath id="clip0_6406_17438"><rect width="195" height="39" fill="white" transform="translate(16 40.5)"></rect></clipPath></defs></svg> 