<?xml version="1.0" encoding="UTF-8"?> <svg xmlns="http://www.w3.org/2000/svg" id="Layer_1" width="83.29" height="56.39" viewBox="0 0 83.29 56.39"><g id="Layer_1-2"><path d="M20.71,37.08c-.01-.19-.14-.31-.34-.31-.17,0-.3.1-.3.23,0,.07.04.12.11.16.04.02.15.07.35.14.36.15.41.17.5.26.1.1.14.23.14.39,0,.4-.29.64-.75.64-.51,0-.8-.26-.82-.75h.39c.03.27.17.4.43.4.2,0,.33-.09.33-.22,0-.08-.05-.15-.14-.2-.04-.02-.16-.07-.36-.16-.24-.1-.35-.17-.43-.25-.1-.1-.15-.23-.15-.38,0-.36.29-.61.71-.61.26,0,.48.1.6.28.07.1.1.2.11.37h-.39ZM22.86,36.46v.34h-.55v1.75h-.4v-1.75h-.55v-.34h1.5ZM23.96,36.46l.71,2.09h-.42l-.13-.44h-.74l-.13.44h-.41l.71-2.09h.41,0,0ZM23.75,36.93l-.27.85h.54s-.27-.85-.27-.85ZM26.19,37.3v.34h-.83v.91h-.4v-2.09h1.31v.34h-.91v.5h.83ZM27.82,37.3v.34h-.83v.91h-.4v-2.09h1.31v.34h-.91v.5h.83ZM28.21,38.55v-2.09h.4v2.09s-.4,0-.4,0ZM29.55,36.46l.84,1.47v-1.47h.38v2.09h-.41l-.87-1.47v1.47h-.38v-2.09h.43ZM32.88,37.48v.87c-.24.17-.49.25-.76.25-.6,0-.96-.42-.96-1.08s.37-1.09.93-1.09c.26,0,.48.1.62.27.1.12.14.24.15.44h-.35c-.03-.24-.17-.37-.41-.37-.33,0-.52.28-.52.74s.2.73.55.73c.14,0,.32-.05.44-.14v-.33h-.42v-.3h.75,0ZM34.09,38.55v-2.09h.4v2.09h-.4ZM35.43,36.46l.84,1.47v-1.47h.38v2.09h-.4l-.87-1.47v1.47h-.38v-2.09h.43ZM37.67,36.46c.31,0,.5.03.65.11.31.16.5.51.5.94s-.17.76-.45.92c-.18.1-.33.13-.76.13h-.45v-2.09h.51,0ZM37.75,38.21c.23,0,.33-.02.44-.1.14-.1.23-.33.23-.61s-.08-.49-.24-.6c-.12-.08-.2-.1-.52-.1h-.09v1.41s.19,0,.19,0ZM39.57,36.46v1.2c0,.2,0,.27.03.35.05.15.19.24.39.24.22,0,.36-.1.41-.28.02-.07.02-.13.02-.31v-1.2h.4v1.2c0,.3-.01.4-.08.54-.12.25-.39.39-.75.39s-.63-.14-.75-.39c-.07-.13-.08-.24-.08-.54v-1.2h.4,0ZM42.28,37.08c-.01-.19-.14-.31-.34-.31-.17,0-.3.1-.3.23,0,.07.04.12.11.16.04.02.15.07.35.14.36.15.41.17.5.26.1.1.14.23.14.39,0,.4-.29.64-.75.64-.51,0-.8-.26-.82-.75h.39c.03.27.17.4.43.4.2,0,.33-.09.33-.22,0-.08-.05-.15-.14-.2-.04-.02-.16-.07-.36-.16-.24-.1-.35-.17-.43-.25-.1-.1-.15-.23-.15-.38,0-.36.29-.61.71-.61.26,0,.48.1.6.28.07.1.1.2.11.37h-.39ZM44.38,36.46v.34h-.55v1.75h-.4v-1.75h-.55v-.34h1.5ZM45.19,36.46c.37,0,.51.02.66.1.19.1.3.3.3.54,0,.27-.12.47-.37.58l.48.87h-.47l-.43-.8h-.29v.8h-.4v-2.09h.52,0ZM45.21,37.42c.2,0,.26,0,.34-.03.11-.04.18-.14.18-.28,0-.11-.05-.19-.14-.24-.08-.05-.14-.05-.41-.05h-.12v.61s.14,0,.14,0ZM46.72,36.46l.44.84.43-.84h.44l-.68,1.27v.82h-.4v-.82l-.68-1.27h.45ZM49.97,36.46l.71,2.09h-.42l-.13-.44h-.74l-.13.44h-.41l.71-2.09h.41,0,0ZM49.77,36.93l-.27.85h.54s-.27-.85-.27-.85ZM51.4,36.46l.84,1.47v-1.47h.38v2.09h-.4l-.87-1.47v1.47h-.38v-2.09h.43ZM54.03,36.46l.71,2.09h-.42l-.13-.44h-.74l-.13.44h-.41l.71-2.09h.41,0,0ZM53.82,36.93l-.27.85h.54s-.27-.85-.27-.85ZM55.44,36.46v1.75h.91v.34h-1.32v-2.09h.41ZM56.84,36.46l.44.84.43-.84h.44l-.68,1.27v.82h-.4v-.82l-.68-1.27h.45ZM59.38,37.08c-.01-.19-.14-.31-.34-.31-.17,0-.3.1-.3.23,0,.07.04.12.11.16.04.02.15.07.35.14.36.15.41.17.5.26.1.1.14.23.14.39,0,.4-.29.64-.75.64-.51,0-.8-.26-.82-.75h.39c.03.27.17.4.43.4.2,0,.33-.09.33-.22,0-.08-.05-.15-.14-.2-.04-.02-.16-.07-.36-.16-.24-.1-.35-.17-.43-.25-.1-.1-.15-.23-.15-.38,0-.36.29-.61.71-.61.26,0,.48.1.6.28.07.1.1.2.11.37h-.39,0ZM61.48,36.46v.34h-.55v1.75h-.4v-1.75h-.55v-.34h1.5ZM62.73,37.08c-.01-.19-.14-.31-.34-.31-.17,0-.3.1-.3.23,0,.07.04.12.11.16.04.02.15.07.35.14.36.15.41.17.5.26.1.1.14.23.14.39,0,.4-.29.64-.75.64-.51,0-.8-.26-.82-.75h.39c.03.27.17.4.43.4.2,0,.33-.09.33-.22,0-.08-.05-.15-.14-.2-.04-.02-.16-.07-.36-.16-.24-.1-.35-.17-.43-.25-.1-.1-.15-.23-.15-.38,0-.36.29-.61.71-.61.26,0,.48.1.6.28.07.1.1.2.11.37h-.39,0ZM36.73,13.66h3.83v9.97h-3.83s0-9.97,0-9.97ZM36.73,27.46h3.83v6.15h-3.83s0-6.15,0-6.15ZM55.32,33.61h3.97l-2.09-6.15h-3.76l1.88,6.15h0Z" style="fill:#53565a;"></path><path d="M40.56,23.63h-8c.19.16.37.32.56.52.82.82,1.29,1.97,1.36,3.3h9.48l1.29-3.83h-4.7,0ZM48.86,23.63l-1.17,3.83h15.5v-3.83s-14.33,0-14.33,0Z" style="fill:#888b8d;"></path><path d="M52.5,13.66h-3.89l-6.73,19.94h3.92l4.75-15.55,1.7,5.57h3.63l-3.39-9.97h0ZM34.48,27.46c-.07-1.33-.54-2.48-1.36-3.3-.19-.2-.37-.37-.56-.52-.64-.52-1.52-.91-4.17-1.99-1.81-.72-2.91-1.18-3.29-1.38-.66-.36-1.02-.9-1.02-1.52,0-1.23,1.26-2.15,2.9-2.15,1.91,0,3.11,1.08,3.26,2.93h3.68c-.09-1.65-.39-2.63-1.08-3.59-1.2-1.7-3.29-2.66-5.77-2.66-4.01,0-6.82,2.42-6.82,5.86,0,1.4.48,2.66,1.4,3.62.72.78,1.85,1.43,4.1,2.39,1.94.8,3.08,1.3,3.44,1.49.93.51,1.38,1.14,1.38,1.91,0,1.26-1.29,2.12-3.17,2.12-2.48,0-3.86-1.29-4.1-3.86h-3.71c.18,4.69,2.87,7.18,7.77,7.18,4.37,0,7.12-2.36,7.12-6.16,0-.13,0-.25-.01-.37h0ZM27.65,41.17l.65,1.9h-.25l-.16-.48h-.71l-.16.48h-.25l.65-1.9h.22,0ZM27.54,41.48l-.29.91h.57l-.29-.91ZM30.52,41.73c-.05-.24-.19-.37-.42-.37-.33,0-.53.3-.53.77s.21.77.53.77c.26,0,.41-.17.44-.48h.23c-.03.44-.27.69-.66.69-.49,0-.8-.38-.8-.98,0-.34.1-.62.28-.79.13-.13.32-.2.51-.2.21,0,.4.08.51.23.07.1.11.19.12.35h-.22ZM31.54,41.18c.3,0,.41.01.54.06.19.08.3.26.3.48,0,.25-.13.42-.38.52l.49.84h-.29l-.46-.79h-.32v.79h-.24v-1.9h.36ZM31.56,42.08c.22,0,.28,0,.37-.04.13-.05.2-.16.2-.31,0-.14-.06-.24-.17-.29-.08-.04-.15-.05-.41-.05h-.12v.68s.13,0,.13,0ZM33.53,41.17l.65,1.9h-.25l-.16-.48h-.71l-.16.48h-.25l.65-1.9h.22,0ZM33.42,41.48l-.29.91h.57l-.29-.91ZM34.53,43.08v-1.9h.25v1.9h-.25ZM35.58,41.18l.88,1.53v-1.53h.23v1.9h-.26l-.88-1.53v1.53h-.23v-1.9s.26,0,.26,0ZM39,41.99v.21h-.77v.87h-.24v-1.9h1.07v.21h-.83v.6h.77ZM40.03,41.17l.65,1.9h-.25l-.16-.48h-.71l-.16.48h-.25l.65-1.9h.22,0ZM39.91,41.48l-.29.91h.57s-.29-.91-.29-.91ZM41.39,41.18l.51,1.63.51-1.63h.36v1.9h-.23v-1.64l-.52,1.64h-.25l-.51-1.64v1.64h-.23v-1.9h.36ZM43.29,43.08v-1.9h.25v1.9h-.25ZM44.33,41.18v1.68h.81v.21h-1.06v-1.9h.25ZM45.36,41.18l.44.86.44-.86h.27l-.59,1.11v.79h-.24v-.79l-.6-1.11h.28ZM47.99,41.18c.25,0,.36.01.46.05.19.07.29.22.29.43s-.1.34-.32.41c.28.07.42.22.42.48,0,.23-.13.42-.32.48-.12.04-.23.05-.55.05h-.35v-1.9h.38,0ZM48.02,41.99c.18,0,.26-.01.34-.05.08-.05.14-.14.14-.26s-.06-.22-.16-.26c-.07-.03-.14-.03-.33-.03h-.16v.6h.17,0ZM48.03,42.87c.22,0,.31-.01.39-.05.1-.04.16-.16.16-.3,0-.15-.07-.26-.2-.31-.08-.03-.15-.03-.35-.03h-.19v.69h.19ZM49.61,41.18c.3,0,.41.01.54.06.19.08.3.26.3.48,0,.25-.13.42-.38.52l.49.84h-.29l-.46-.79h-.32v.79h-.24v-1.9h.36ZM49.62,42.08c.22,0,.28,0,.37-.04.13-.05.2-.16.2-.31,0-.14-.06-.24-.17-.29-.08-.04-.15-.05-.41-.05h-.12v.68s.13,0,.13,0ZM51.6,41.17l.65,1.9h-.25l-.16-.48h-.71l-.16.48h-.25l.65-1.9h.22,0ZM51.49,41.48l-.29.91h.57s-.29-.91-.29-.91ZM52.86,41.18l.88,1.53v-1.53h.23v1.9h-.26l-.88-1.53v1.53h-.23v-1.9h.26ZM54.84,41.18c.35,0,.5.03.65.1.27.15.44.47.44.84s-.17.7-.44.84c-.16.08-.28.1-.68.1h-.3v-1.9h.33ZM54.9,42.87c.28,0,.37-.02.49-.1.18-.11.28-.34.28-.64s-.11-.55-.31-.66c-.12-.07-.19-.08-.52-.08h-.08v1.48h.15,0Z" style="fill:#53565a;"></path></g></svg> 