<?xml version="1.0" encoding="UTF-8"?> <svg xmlns="http://www.w3.org/2000/svg" version="1.1" viewBox="0 0 331.4 49.5"><defs><style> .cls-1 { fill: #53565a; } </style></defs><g><g id="Layer_1"><g><path class="cls-1" d="M306.4,32c-.1-6.1,2.5-12.3,9.1-12.3s9.8,6.3,9.8,12.5c0,5.6-2.9,12.4-9.7,12.4s-9.3-7.4-9.2-12.6M325.5,48.7h5.8V0h-6.1v20.1h-.1c-1.9-3-5.2-5.3-11-5.3-9.6,0-14.3,7.8-14.3,16.8s4.2,18,14.2,18c5.9,0,9.7-3,11.3-5.4h.1v4.5h.1Z"></path><path class="cls-1" d="M25.8,48.7h7.4v-18.5c0-1-.4-2-1.1-2.6l-11-10.9c-.7-.7-1.6-1.1-2.6-1.1H0v7.4h20.3c3.1,0,5.5,2.5,5.5,5.5v20.2"></path><path class="cls-1" d="M44.1,48.7h-7.4v-18.5c0-1,.4-2,1.1-2.6l10.9-10.9c.7-.7,1.6-1.1,2.6-1.1h18.5v7.4h-20.2c-3,0-5.5,2.5-5.5,5.5v20.2"></path><path class="cls-1" d="M103.1,15.6h5.7v5.1h.1c1.6-3.4,5.1-5.9,8.6-5.9,1.8,0,2.7.2,4,.5v5.5c-1.1-.5-2.3-.6-3.4-.6-5.5,0-9,5.2-9,13.5v15.1h-6.1V15.6"></path><path class="cls-1" d="M289.7,35.8c0,5-3.2,8.8-9.2,8.8-2.8,0-6.2-1.9-6.2-5.4,0-5.9,8.2-6.4,11.5-6.4,1.3,0,2.6.1,3.9.1v2.9M272,23.1c2.5-2.1,6.2-3.4,9.6-3.4,6.1,0,8.2,3,8.2,8.7-2.4-.1-4.1-.1-6.5-.1-6.3,0-15.4,2.6-15.4,10.9,0,7.3,5,10.4,12.1,10.4,5.6,0,8.8-3,10.2-5h.1v4.2h5.4v-20.3c0-9.1-3.8-13.7-13.3-13.7-4.2,0-7.8,1.3-10.9,3.1l.5,5.2Z"></path><path class="cls-1" d="M142.3,35.8c0,5-3.2,8.8-9.2,8.8-2.8,0-6.2-1.9-6.2-5.4,0-5.9,8.2-6.4,11.5-6.4,1.3,0,2.6.1,3.9.1v2.9M124.5,23.1c2.5-2.1,6.2-3.4,9.6-3.4,6.1,0,8.2,3,8.2,8.7-2.4-.1-4.1-.1-6.5-.1-6.3,0-15.4,2.6-15.4,10.9,0,7.3,5,10.4,12.1,10.4,5.6,0,8.8-3,10.2-5h.1v4.2h5.4v-20.3c0-9.1-3.8-13.7-13.3-13.7-4.2,0-7.8,1.3-10.9,3.1l.5,5.2Z"></path><path class="cls-1" d="M153.4,15.6h5.9v5.2h.1c1.8-3.8,6.3-6,10.9-6,8.6,0,12.4,5.3,12.4,14.2v19.7h-6.1v-17.2c0-7.7-1.7-11.5-7-11.8-7,0-10.1,5.6-10.1,13.7v15.3h-6.1V15.6"></path><path class="cls-1" d="M222.3,42.3c2.4,1.6,5.8,2.4,7.6,2.4,2.8,0,6.2-1.2,6.2-4.8,0-6.1-14.3-5.6-14.3-14.9,0-6.9,5.1-10.2,11.7-10.2,2.8,0,5.2.6,7.6,1.3l-.5,5.3c-1.4-.9-5-1.7-6.4-1.7-3.1,0-5.8,1.3-5.8,4,0,6.8,14.3,4.8,14.3,15.5,0,7.1-5.7,10.3-11.6,10.3-3.1,0-6.3-.3-9.1-1.8l.3-5.4"></path><path class="cls-1" d="M265.9,20.5h-8.8v18.2c0,3.9,2.3,5.9,5.1,5.9,1.9,0,3.2-.6,4.2-1.2v5.2c-1.4.4-3.2.9-5.2.9-6.3,0-10.2-3-10.2-9.6v-19.4h-7.5v-4.9h7.5v-7.7l6.1-2v9.6h8.8v5"></path><path class="cls-1" d="M193.3,32c-.1-6.1,2.5-12.3,9.1-12.3s9.8,6.3,9.8,12.5c0,5.6-2.9,12.4-9.7,12.4s-9.4-7.4-9.2-12.6M212.4,48.7h5.8V0h-6.1v20.1h-.1c-1.9-3-5.2-5.3-11-5.3-9.6,0-14.3,7.8-14.3,16.8s4.2,18,14.2,18c5.9,0,9.7-3,11.3-5.4h.1v4.5h.1Z"></path></g></g></g></svg> 