<?xml version="1.0" encoding="UTF-8"?> <svg xmlns="http://www.w3.org/2000/svg" version="1.1" viewBox="0 0 163.2 43"><defs><style> .cls-1 { fill: #fff; } .cls-2 { fill: #53565a; } </style></defs><g><g id="Layer_1"><g><polygon id="Fill-1" class="cls-1" points=".41 34 28.26 34 28.26 16.33 .41 16.33 .41 34"></polygon><path id="Fill-2" class="cls-2" d="M28.26,10.05v11.2c-3.19-1.08-7.01-2-11.37-1.52-6.28.7-9.91,3.68-13.18,6.68-1.11.89-2.17,1.76-3.3,2.6V10.08c0-.3.11-.57.3-.78.22-.24.54-.41.89-.41h25.49c.35,0,.68.16.89.41.16.19.27.46.27.76"></path><polygon id="Fill-5" class="cls-1" points="5.74 11.19 6.53 13.57 8.99 13.57 6.99 15.03 7.74 17.41 5.74 15.92 3.74 17.41 4.52 15.03 2.49 13.57 4.98 13.57 5.74 11.19"></polygon><path class="cls-2" d="M15.02,34.08h3.41c-1.43-1.3-3.09-2.41-4.95-2.9-1.84-.49-3.76-.3-5.58.14-1.35.32-2.65.78-3.92,1.38-.54.24-1.08.51-1.6.81-.03,0,8.99-2.9,12.64.57M28.26,25.21v3.14c-3.25-1.65-6.2-3.98-9.88-4.6-3.46-.6-7.06.41-10.09,2.08-1.43.78-2.81,1.71-4.19,2.6,0-.11,5.79-6.5,13.69-6.5,6.33-.05,9.91,3.27,10.47,3.27M14.54,28.4c-4.06,0-9.69,2.46-13.23,4.22,0-.08.27-.22.3-.27.27-.22.57-.43.87-.62.97-.68,1.98-1.3,3-1.89,2.68-1.52,5.6-2.84,8.69-3.22,1.57-.19,3.11-.03,4.6.46,1.49.49,2.9,1.24,4.17,2.14,1.89,1.3,3.55,2.9,5.09,4.6.05.08.14.14.19.22v.08h-4.01c.05-.03-4.17-5.71-9.66-5.71-4.06,0,5.49,0,0,0M54.81,22.61c0,1.14-.16,2.19-.51,3.14-.35.95-.87,1.79-1.54,2.49s-1.54,1.24-2.54,1.65c-1.03.41-2.19.6-3.52.6s-2.52-.19-3.55-.6-1.87-.95-2.54-1.65-1.19-1.54-1.54-2.49-.51-2-.51-3.14v-11.77h4.25v11.61c0,.6.11,1.14.3,1.65.19.51.46.95.81,1.33s.76.65,1.24.87c.49.22,1,.32,1.57.32s1.08-.11,1.54-.32c.46-.22.89-.49,1.22-.87.35-.38.62-.81.81-1.33s.3-1.06.3-1.65v-11.61h4.25v11.77h-.03ZM67.82,15.52c-.35-.43-.81-.76-1.41-.97-.6-.22-1.16-.32-1.68-.32-.3,0-.62.03-.95.11s-.65.19-.92.35c-.3.16-.51.35-.7.62-.19.24-.27.57-.27.92,0,.57.22,1.03.65,1.33.43.3.97.57,1.65.78s1.38.43,2.14.65,1.49.51,2.14.92c.68.41,1.22.92,1.65,1.6s.65,1.57.65,2.68-.19,2-.6,2.79-.95,1.46-1.62,1.98-1.46.92-2.38,1.16c-.89.24-1.84.38-2.84.38-1.24,0-2.41-.19-3.49-.57s-2.08-1-3-1.84l3.03-3.3c.43.57.97,1.03,1.65,1.35s1.35.49,2.06.49c.35,0,.7-.05,1.06-.14s.68-.22.95-.38.51-.38.68-.62.27-.54.27-.89c0-.57-.22-1.03-.68-1.38-.43-.32-1-.62-1.68-.87-.68-.24-1.41-.46-2.19-.7s-1.52-.54-2.19-.95-1.24-.92-1.68-1.57c-.43-.65-.68-1.52-.68-2.57s.22-1.92.62-2.71.95-1.43,1.62-1.95c.68-.51,1.46-.92,2.35-1.19s1.81-.41,2.76-.41c1.08,0,2.14.16,3.17.46,1.03.3,1.95.81,2.76,1.54l-2.9,3.22ZM77.84,18.96h2.84c.38,0,.76-.03,1.11-.11.35-.08.68-.19.95-.38.27-.16.51-.41.68-.7s.27-.68.27-1.14c0-.49-.11-.89-.35-1.19-.22-.3-.51-.54-.87-.7-.35-.16-.76-.27-1.19-.32s-.87-.08-1.24-.08h-2.19v4.63ZM73.59,10.84h7.17c1,0,1.95.08,2.84.27s1.68.49,2.33.95c.68.43,1.19,1.03,1.57,1.79.38.76.6,1.71.6,2.84s-.19,2.06-.54,2.81-.87,1.35-1.49,1.81c-.65.46-1.38.78-2.27.97-.87.19-1.81.3-2.84.3h-3.11v7.47h-4.25V10.84ZM96.65,16.41l-2.35,5.95h4.71l-2.35-5.95ZM95.02,10.84h3.52l8.39,19.19h-4.79l-1.65-4.06h-7.5l-1.6,4.06h-4.68l8.31-19.19ZM117.73,16.41l-2.35,5.95h4.71l-2.35-5.95ZM116.11,10.84h3.52l8.39,19.19h-4.79l-1.65-4.06h-7.5l-1.6,4.06h-4.68l8.31-19.19ZM141.33,15.82c-.41-.51-.92-.89-1.54-1.16s-1.33-.41-2.11-.41-1.54.16-2.22.46-1.27.73-1.79,1.3c-.49.54-.89,1.22-1.16,1.98s-.43,1.57-.43,2.46.14,1.73.43,2.49c.27.76.68,1.41,1.16,1.95s1.06.97,1.73,1.3c.68.3,1.38.46,2.14.46.87,0,1.65-.19,2.33-.54s1.22-.87,1.65-1.52l3.55,2.63c-.81,1.14-1.87,1.98-3.11,2.52s-2.54.81-3.87.81c-1.52,0-2.9-.24-4.17-.7s-2.38-1.14-3.3-2.03c-.92-.87-1.65-1.95-2.17-3.19-.51-1.24-.78-2.63-.78-4.17s.27-2.92.78-4.17,1.24-2.3,2.17-3.19c.92-.87,2.03-1.54,3.3-2.03,1.27-.46,2.65-.7,4.17-.7.54,0,1.11.05,1.71.16s1.16.27,1.76.49c.57.22,1.11.51,1.65.87.51.35,1,.81,1.41,1.33l-3.27,2.63ZM159.06,15.82c-.41-.51-.92-.89-1.54-1.16s-1.33-.41-2.11-.41-1.54.16-2.22.46-1.27.73-1.79,1.3c-.49.54-.89,1.22-1.16,1.98s-.43,1.57-.43,2.46.14,1.73.43,2.49c.27.76.68,1.41,1.16,1.95s1.06.97,1.73,1.3c.68.3,1.38.46,2.14.46.87,0,1.65-.19,2.33-.54s1.22-.87,1.65-1.52l3.55,2.63c-.81,1.14-1.87,1.98-3.11,2.52s-2.54.81-3.87.81c-1.52,0-2.9-.24-4.17-.7s-2.38-1.14-3.3-2.03c-.92-.87-1.65-1.95-2.17-3.19-.51-1.24-.78-2.63-.78-4.17s.27-2.92.78-4.17,1.24-2.3,2.17-3.19c.92-.87,2.03-1.54,3.3-2.03,1.27-.46,2.65-.7,4.17-.7.54,0,1.11.05,1.71.16s1.16.27,1.76.49c.57.22,1.11.51,1.65.87.51.35,1,.81,1.41,1.33l-3.27,2.63Z"></path></g></g></g></svg> 