<?xml version="1.0" encoding="UTF-8"?> <svg xmlns="http://www.w3.org/2000/svg" width="164" height="32" viewBox="0 0 164 32" fill="none"><path d="M7.17983 13.4512L0 20.2596V24.5098C0 25.9953 1.21727 27.1713 2.66149 27.1713H19.7445L7.1592 13.4512H7.17983Z" fill="white" fill-opacity="0.8"></path><path d="M6.91162 9.36714L24.0566 22.5302V8.45934C24.0566 6.97386 22.8393 5.79785 21.3951 5.79785H2.66149C1.17601 5.79785 0 7.01512 0 8.45934V19.9099L6.93225 9.36714H6.91162Z" fill="white" fill-opacity="0.8"></path><path d="M76.5018 29.6056C76.4399 29.7088 76.3574 29.8532 76.2543 30.0389C76.1511 30.204 76.0067 30.369 75.821 30.5341C75.6353 30.6991 75.4084 30.8435 75.1402 30.9467C74.8719 31.0705 74.5625 31.1118 74.1705 31.1118C73.7785 31.1118 73.4277 31.0499 73.1182 30.9054C72.8088 30.761 72.5406 30.5753 72.3342 30.3278C72.1279 30.0802 71.9629 29.812 71.8391 29.4819C71.7359 29.1517 71.674 28.8216 71.674 28.4503C71.674 28.0789 71.7359 27.6869 71.8597 27.3568C71.9835 27.0267 72.1486 26.7378 72.3755 26.5109C72.6025 26.2839 72.85 26.0776 73.1595 25.9538C73.7578 25.6856 74.5212 25.6856 75.202 25.9538C75.5322 26.0983 75.821 26.3252 76.0479 26.6347C76.1305 26.7378 76.1924 26.8204 76.2336 26.9029C76.2749 26.9854 76.3162 27.0679 76.3781 27.1505L76.4606 27.2949L77.2033 26.8204L77.1414 26.6966C77.0795 26.5934 77.0176 26.4903 76.9557 26.3871C76.8938 26.2633 76.8113 26.1601 76.7082 26.0364C76.605 25.9126 76.5018 25.8094 76.3781 25.6856C76.2543 25.5618 76.1098 25.4587 75.9242 25.3349C75.6766 25.1905 75.3877 25.0667 75.0989 24.9841C74.81 24.9016 74.4799 24.8604 74.1705 24.8604C73.6959 24.8604 73.2627 24.9429 72.85 25.1286C72.4374 25.3142 72.0867 25.5618 71.7772 25.8713C71.4677 26.1808 71.2408 26.5728 71.0757 27.006C70.9107 27.4393 70.8281 27.9138 70.8281 28.409C70.8281 28.9042 70.89 29.2136 71.0138 29.6263C71.1376 30.0389 71.3439 30.4309 71.6121 30.7817C71.8803 31.1324 72.2311 31.4212 72.6643 31.6276C73.0976 31.8545 73.6134 31.9577 74.1911 31.9577C74.7688 31.9577 74.6656 31.937 74.9132 31.8958C75.1608 31.8545 75.3877 31.772 75.6353 31.6688C75.8623 31.5657 76.0892 31.4212 76.3162 31.2562C76.5431 31.0911 76.7288 30.8642 76.9145 30.6166C77.0176 30.4928 77.0795 30.369 77.1414 30.2865C77.2033 30.1833 77.2446 30.0802 77.3065 29.977L77.3684 29.8532L76.605 29.4406L76.5225 29.5644L76.5018 29.6056Z" fill="white" fill-opacity="0.8"></path><path d="M87.0244 26.0157C86.7355 25.6856 86.3641 25.3968 85.9309 25.1905C85.4976 24.9841 84.9818 24.881 84.3835 24.8604C83.8471 24.8604 83.3519 24.9635 82.9186 25.1286C82.4854 25.3142 82.114 25.5618 81.8045 25.8919C81.4951 26.222 81.2681 26.5934 81.1031 27.0267C80.938 27.4599 80.8555 27.9138 80.8555 28.409C80.8555 28.9042 80.938 29.3787 81.1031 29.812C81.2681 30.2452 81.5157 30.6372 81.8045 30.9467C82.114 31.2562 82.4854 31.5244 82.898 31.6894C83.3313 31.8751 83.8058 31.9577 84.3216 31.9577C84.8374 31.9577 85.3532 31.8545 85.7865 31.6688C86.2197 31.4831 86.6117 31.2149 86.9212 30.9054C87.2307 30.5753 87.4783 30.204 87.6433 29.7707C87.8084 29.3374 87.8909 28.8835 87.8909 28.3884C87.8909 27.8932 87.829 27.5218 87.6846 27.1092C87.5401 26.6966 87.3132 26.3046 87.0244 25.9745V26.0157ZM84.3835 31.153C84.0121 31.153 83.6614 31.0911 83.3519 30.9673C83.0424 30.8435 82.7536 30.6785 82.5266 30.4515C82.2997 30.2246 82.114 29.9358 81.9696 29.6056C81.8252 29.2755 81.7633 28.8835 81.7633 28.4709C81.7633 28.0583 81.8045 27.8313 81.9077 27.5012C82.0109 27.1917 82.1553 26.9029 82.341 26.6347C82.5473 26.3871 82.7949 26.1601 83.1043 25.9951C83.4138 25.83 83.7852 25.7269 84.2184 25.7063C84.4454 25.7063 84.6517 25.7063 84.8374 25.7475C85.0231 25.7888 85.2088 25.83 85.3532 25.8919C85.5182 25.9538 85.642 26.0157 85.7658 26.0776C85.869 26.1395 85.9721 26.2014 86.034 26.2427C86.1991 26.3665 86.3435 26.5109 86.4673 26.6759C86.5911 26.841 86.6942 27.0267 86.7561 27.2124C86.8387 27.3981 86.8799 27.6044 86.9212 27.7901C86.9625 27.9964 86.9831 28.2027 86.9831 28.3884C86.9831 28.8423 86.9212 29.2343 86.7768 29.585C86.6323 29.9151 86.4467 30.204 86.2197 30.4515C85.9928 30.6785 85.7039 30.8642 85.3944 30.988C85.085 31.1118 84.7342 31.1737 84.3835 31.1737V31.153Z" fill="white" fill-opacity="0.8"></path><path d="M97.4669 30.4719L92.8041 25.0664H92.082V31.813H92.8867V26.4487L97.5494 31.813H98.2922V25.0664H97.4669V30.4719Z" fill="white" fill-opacity="0.8"></path><path d="M107.615 28.2448C107.45 28.1623 107.243 28.1004 107.017 28.0385C106.81 27.9972 106.563 27.9353 106.294 27.8941C106.233 27.8941 106.171 27.8941 106.067 27.8528C105.964 27.8528 105.841 27.8115 105.717 27.7909C105.593 27.7909 105.449 27.7496 105.304 27.729L104.912 27.6671C104.788 27.6465 104.665 27.6259 104.561 27.6052C104.438 27.6052 104.376 27.5846 104.355 27.564C104.273 27.564 104.19 27.5227 104.107 27.4814C104.025 27.4402 103.942 27.3989 103.881 27.337C103.819 27.2751 103.757 27.2132 103.715 27.1513C103.674 27.0894 103.654 26.9863 103.654 26.8625C103.654 26.6974 103.695 26.553 103.777 26.4292C103.86 26.2848 103.984 26.1816 104.128 26.0785C104.293 25.9753 104.479 25.8928 104.726 25.8309C104.953 25.769 105.222 25.7484 105.51 25.7484C105.799 25.7484 106.171 25.7896 106.418 25.8722C106.666 25.9547 106.872 26.0372 107.017 26.1404C107.182 26.2435 107.285 26.3467 107.388 26.4498C107.47 26.553 107.553 26.6562 107.594 26.7181L107.677 26.8418L108.461 26.3467L108.358 26.2229C108.007 25.7484 107.594 25.3976 107.12 25.1913C106.645 24.985 106.129 24.8818 105.552 24.8818C104.974 24.8818 104.685 24.9437 104.334 25.0469C103.984 25.15 103.695 25.2945 103.468 25.4802C103.241 25.6658 103.055 25.8928 102.952 26.1404C102.828 26.3879 102.787 26.6355 102.787 26.9037C102.787 27.172 102.849 27.4814 102.993 27.7084C103.138 27.9353 103.323 28.121 103.571 28.2448C103.736 28.3273 103.922 28.4099 104.128 28.4511C104.314 28.4924 104.541 28.5336 104.788 28.5749C104.953 28.5955 105.139 28.6368 105.325 28.6574L105.861 28.74C106.171 28.7812 106.439 28.8431 106.686 28.8844C106.913 28.9256 107.099 28.9875 107.264 29.0701C107.409 29.1526 107.512 29.2351 107.594 29.3383C107.656 29.4414 107.697 29.5859 107.697 29.7715C107.697 29.9572 107.656 30.1429 107.553 30.2873C107.45 30.4524 107.326 30.5968 107.14 30.7C106.955 30.8238 106.728 30.9063 106.48 30.9888C106.088 31.092 105.614 31.1126 105.139 31.0713C104.995 31.0713 104.83 31.0301 104.685 30.9888C104.438 30.9269 104.231 30.865 104.066 30.7619C103.901 30.6793 103.777 30.5556 103.674 30.4524C103.571 30.3286 103.489 30.2254 103.427 30.1017C103.365 29.9779 103.303 29.8334 103.262 29.7097L103.2 29.5652L102.312 29.9366L102.374 30.081C102.436 30.2048 102.478 30.3286 102.539 30.4524C102.601 30.5762 102.684 30.7 102.766 30.8238C102.849 30.9476 102.973 31.0713 103.097 31.1745C103.22 31.2983 103.385 31.4015 103.571 31.5046C103.695 31.5665 103.819 31.6284 103.942 31.6903C104.066 31.7522 104.231 31.7935 104.396 31.8347C104.561 31.876 104.747 31.8966 104.953 31.9172C105.16 31.9379 105.387 31.9585 105.655 31.9585C106.067 31.9585 106.418 31.9172 106.707 31.8347C107.017 31.7522 107.264 31.649 107.47 31.5459C107.677 31.4221 107.862 31.2983 107.986 31.1539C108.11 31.0095 108.213 30.865 108.296 30.7412C108.378 30.5968 108.44 30.4524 108.502 30.2667C108.543 30.1017 108.585 29.916 108.585 29.7303C108.585 29.3795 108.502 29.0701 108.316 28.8019C108.151 28.5543 107.924 28.348 107.656 28.2242L107.615 28.2448Z" fill="white" fill-opacity="0.8"></path><path d="M117.89 28.9455C117.89 29.3375 117.849 29.6677 117.766 29.9359C117.684 30.2041 117.56 30.4104 117.395 30.5754C117.23 30.7405 117.003 30.8643 116.735 30.9468C116.446 31.0293 116.095 31.0706 115.682 31.0706C115.27 31.0706 115.002 31.0293 114.713 30.9674C114.445 30.9056 114.218 30.7818 114.032 30.6373C113.846 30.4723 113.702 30.266 113.599 30.0184C113.495 29.7708 113.454 29.4407 113.454 29.0281V25.0255H112.629V29.0693C112.629 30.039 112.876 30.7818 113.392 31.2357C113.887 31.6896 114.671 31.9371 115.682 31.9371C116.693 31.9371 117.457 31.7102 117.952 31.2357C118.468 30.7611 118.715 30.0184 118.715 28.9868V25.0049H117.89V28.8836V28.9455Z" fill="white" fill-opacity="0.8"></path><path d="M124.077 25.0664H123.211V31.813H128.245V30.9877H124.077V25.0664Z" fill="white" fill-opacity="0.8"></path><path d="M130.457 25.9123H133.015V31.813H133.861V25.9123H136.316V25.0664H130.457V25.9123Z" fill="white" fill-opacity="0.8"></path><path d="M140.975 25.0664H140.129V31.813H140.975V25.0664Z" fill="white" fill-opacity="0.8"></path><path d="M150.877 30.4719L146.214 25.0664H145.492V31.813H146.297V26.4487L150.96 31.813H151.702V25.0664H150.877V30.4719Z" fill="white" fill-opacity="0.8"></path><path d="M158.659 28.1623V29.0082H161.692C161.692 29.0494 161.692 29.1113 161.692 29.1732C161.692 29.297 161.65 29.4208 161.609 29.5652C161.568 29.7097 161.506 29.8334 161.423 29.9985C161.341 30.1429 161.238 30.2873 161.093 30.4318C160.866 30.6793 160.577 30.865 160.289 30.9682C159.979 31.092 159.67 31.1539 159.36 31.1539C159.051 31.1539 158.617 31.092 158.308 30.9476C157.998 30.8238 157.73 30.6381 157.524 30.3905C157.297 30.1636 157.132 29.8747 157.008 29.5446C156.884 29.2145 156.822 28.8638 156.822 28.4511C156.822 28.0385 156.884 27.7084 157.008 27.3783C157.132 27.0482 157.297 26.7593 157.503 26.5324C157.71 26.2848 157.978 26.0991 158.287 25.9753C158.597 25.8309 158.927 25.769 159.298 25.769C159.67 25.769 159.958 25.8309 160.289 25.9341C160.598 26.0372 160.887 26.2229 161.134 26.4705C161.258 26.5943 161.341 26.7181 161.403 26.8212C161.465 26.945 161.526 27.0482 161.588 27.1513L161.671 27.2957L162.476 26.78L162.414 26.6562C162.331 26.5117 162.228 26.3467 162.104 26.1816C161.98 25.9959 161.815 25.8103 161.588 25.6246C161.279 25.377 160.928 25.1913 160.557 25.0675C160.165 24.9437 159.773 24.8818 159.36 24.8818C158.948 24.8818 158.37 24.985 157.957 25.15C157.545 25.3357 157.173 25.5833 156.884 25.9134C156.596 26.2435 156.369 26.6149 156.204 27.0688C156.038 27.5021 155.977 27.9766 155.977 28.4718C155.977 28.9669 156.059 29.4621 156.224 29.8747C156.389 30.308 156.616 30.6793 156.905 30.9888C157.194 31.2983 157.565 31.5459 157.978 31.7316C158.39 31.8966 158.844 31.9998 159.34 31.9998C159.835 31.9998 159.855 31.9791 160.082 31.9172C160.309 31.8554 160.516 31.7935 160.681 31.7109C160.866 31.6284 161.031 31.5459 161.155 31.4427C161.279 31.3396 161.403 31.257 161.485 31.1745C161.588 31.0713 161.692 30.9682 161.753 30.865V31.7935H162.558V28.121H158.721L158.659 28.1623Z" fill="white" fill-opacity="0.8"></path><path d="M30.3488 5.96281H35.3829V8.27356C36.1256 7.34513 37.0541 6.66429 38.1682 6.18976C39.2823 5.71523 40.5202 5.48828 41.9025 5.48828C43.2848 5.48828 44.8735 5.83902 46.0495 6.49924C47.2255 7.18008 48.1333 8.12914 48.7935 9.34641C49.4537 10.5637 49.7838 11.9873 49.7838 13.6172C49.7838 15.2471 49.4537 16.7119 48.7729 17.9911C48.092 19.2703 47.1223 20.2812 45.8638 21.0033C44.6053 21.7254 43.1198 22.0968 41.4073 22.0968C38.8078 22.0968 36.8271 21.2715 35.4654 19.6004V27.4404H30.3281V5.96281H30.3488ZM44.564 13.741C44.564 12.2967 44.172 11.1826 43.4086 10.3986C42.6453 9.61462 41.5311 9.22262 40.1076 9.22262C38.684 9.22262 37.6317 9.61462 36.7446 10.3986C35.878 11.1826 35.4242 12.1523 35.4242 13.349V14.0917C35.4242 15.3502 35.8368 16.3818 36.6414 17.1658C37.4461 17.9498 38.5602 18.3418 39.9425 18.3418C41.3248 18.3418 42.6246 17.9498 43.388 17.1658C44.1514 16.3818 44.5434 15.2264 44.5434 13.7203L44.564 13.741Z" fill="white" fill-opacity="0.8"></path><path d="M51.1883 23.7474C51.5803 23.8712 51.9517 23.9537 52.323 23.995C52.6738 24.0363 53.0658 24.0775 53.4578 24.0775C54.2005 24.0775 54.7988 23.9125 55.2734 23.603C55.7479 23.2729 56.1812 22.7365 56.5732 21.9525L57.2127 20.6527L49.2695 5.96289H54.8607L59.6473 16.2375L64.0418 5.96289H69.4267L61.174 22.4683C60.4932 23.8299 59.833 24.9028 59.214 25.6868C58.5744 26.4708 57.8936 27.0072 57.1302 27.3167C56.3668 27.6262 55.4384 27.7912 54.3449 27.7912C53.2515 27.7912 52.9626 27.75 52.3643 27.6468C51.766 27.5437 51.1264 27.3786 50.4455 27.131L51.1883 23.7474Z" fill="white" fill-opacity="0.8"></path><path d="M70.6016 5.96255H75.6357V8.41772C77.1831 6.60213 79.1018 5.69434 81.4126 5.69434C83.7233 5.69434 81.9903 5.69434 82.2997 5.7356C82.6092 5.75623 82.9187 5.79749 83.2488 5.83876L82.6711 9.80005C81.949 9.69689 81.33 9.65562 80.7936 9.65562C79.2256 9.65562 77.9877 10.027 77.0593 10.7904C76.1721 11.5331 75.7389 12.3996 75.7389 13.4106V21.6426H70.6016V5.96255Z" fill="white" fill-opacity="0.8"></path><path d="M83.332 17.2475C83.332 15.5557 84.0748 14.2765 85.5809 13.41C87.087 12.5641 89.4184 12.0896 92.5957 12.007L96.3919 11.9245V11.3262C96.3919 9.57251 95.2159 8.68534 92.8433 8.68534C90.4706 8.68534 89.3565 9.26303 88.9232 10.4184L84.3224 10.0677C84.9619 7.01418 87.871 5.4668 93.0496 5.4668C98.2281 5.4668 101.282 7.5506 101.282 11.7182V21.6214H96.5776V19.5583C95.6698 20.4454 94.6795 21.0644 93.6273 21.4564C92.575 21.8484 91.3371 22.0341 89.9548 22.0341C87.8298 22.0341 86.1998 21.6214 85.0445 20.7962C83.8891 19.9709 83.332 18.7742 83.332 17.2475ZM88.2217 16.8968C88.2217 18.1759 89.274 18.8155 91.3784 18.8155C93.4828 18.8155 93.0496 18.6711 93.813 18.4029C94.5763 18.1347 95.1953 17.7427 95.6904 17.2475C96.165 16.7523 96.4125 16.1334 96.4125 15.4113V14.6685L92.9258 14.7511C91.2959 14.7923 90.0992 14.978 89.3565 15.3288C88.5931 15.6795 88.2217 16.1953 88.2217 16.8968Z" fill="white" fill-opacity="0.8"></path><path d="M104.254 5.96281H109.288V8.35609C110.072 7.42766 110.959 6.72618 111.95 6.23102C112.94 5.73586 114.054 5.48828 115.292 5.48828C118.036 5.48828 119.851 6.49923 120.739 8.50051C122.41 6.49923 124.576 5.48828 127.238 5.48828C129.899 5.48828 130.662 6.00407 131.715 7.03566C132.767 8.06724 133.283 9.55273 133.283 11.4715V21.6429H128.125V12.2967C128.125 11.2652 127.918 10.5018 127.485 10.0273C127.052 9.55273 126.35 9.32578 125.36 9.32578C124.37 9.32578 123.297 9.71778 122.43 10.5018C121.708 11.1414 121.358 11.9047 121.358 12.7919V21.6429H116.22V12.2967C116.22 11.2652 115.993 10.5018 115.56 10.0273C115.106 9.55273 114.405 9.32578 113.435 9.32578C112.465 9.32578 111.331 9.73841 110.505 10.5843C109.783 11.2445 109.432 12.0698 109.432 13.0395V21.6223H104.295V5.96281H104.254Z" fill="white" fill-opacity="0.8"></path><path d="M136.254 0H141.474V3.61055H136.254V0ZM136.275 5.96256H141.412V21.6427H136.275V5.96256Z" fill="white" fill-opacity="0.8"></path><path d="M143.68 13.988C143.68 12.3169 144.01 10.852 144.691 9.59348C145.371 8.31432 146.341 7.32399 147.6 6.58125C148.858 5.85914 150.344 5.48777 152.077 5.48777C154.656 5.48777 156.636 6.31304 158.019 7.94295V0.206055H163.156V21.6424H158.122V19.3316C157.379 20.2601 156.451 20.9409 155.337 21.4155C154.222 21.89 152.985 22.1169 151.602 22.1169C150.22 22.1169 148.631 21.7662 147.435 21.106C146.259 20.4251 145.33 19.4761 144.67 18.2588C144.01 17.0415 143.68 15.6179 143.68 13.988ZM148.941 13.8642C148.941 15.3085 149.312 16.4226 150.076 17.2066C150.839 17.9906 151.932 18.3826 153.377 18.3826C154.821 18.3826 155.089 18.1969 155.791 17.8462C156.492 17.4954 157.049 17.0003 157.441 16.3607C157.833 15.7211 158.039 15.0196 158.039 14.2356V13.4929C158.039 12.2343 157.627 11.2028 156.822 10.4394C156.017 9.65538 154.903 9.26338 153.5 9.26338C152.097 9.26338 150.86 9.65538 150.076 10.4394C149.312 11.2234 148.92 12.3788 148.92 13.8849L148.941 13.8642Z" fill="white" fill-opacity="0.8"></path></svg> 