<?xml version="1.0" encoding="UTF-8"?> <svg xmlns="http://www.w3.org/2000/svg" width="104" height="29" viewBox="0 0 104 29" fill="none"><g id="Frame 1973341808"><g id="Group"><g id="Group_2"><path id="Vector" d="M25.6113 22.7955V21.7085C24.812 22.8275 23.629 23.403 22.0944 23.403C20.5597 23.403 20.4957 23.1792 19.8243 22.7636C19.1849 22.3479 18.6733 21.7404 18.2896 20.9411C17.9379 20.1738 17.7461 19.2466 17.7461 18.2235C17.7461 17.2003 17.9379 16.2731 18.3216 15.4738C18.7053 14.6745 19.2488 14.0351 19.9202 13.5874C20.6236 13.1398 21.4229 12.916 22.3501 12.916C23.2773 12.916 23.7249 13.0439 24.2685 13.3317C24.812 13.6194 25.2916 14.0351 25.6753 14.6106V13.2677H28.4249V22.1561C28.4249 24.1704 28.0093 25.6411 27.178 26.5683C26.3467 27.4955 25.0358 27.9751 23.2454 27.9751C21.4549 27.9751 20.4638 27.6873 19.6644 27.0799C18.8332 26.5044 18.3536 25.6091 18.1937 24.3942H20.9114C21.0393 24.8418 21.2631 25.1935 21.6467 25.3853C21.9984 25.5771 22.542 25.6731 23.2454 25.6731C23.9488 25.6731 24.6841 25.4493 25.0678 24.9697C25.4515 24.4901 25.6433 23.7867 25.6433 22.7636L25.6113 22.7955ZM24.9399 16.1452C24.4923 15.6657 23.8848 15.4419 23.1494 15.4419C22.4141 15.4419 21.7427 15.6976 21.295 16.1772C20.8474 16.6568 20.6556 17.3282 20.6556 18.2235C20.6556 19.1187 20.8794 19.7901 21.295 20.2697C21.7107 20.7493 22.3182 21.0051 23.0855 21.0051C23.8528 21.0051 24.4283 20.7813 24.9079 20.3017C25.3875 19.8221 25.6433 19.1826 25.6433 18.4153V18.1275C25.6433 17.2963 25.4195 16.6568 24.9399 16.1772V16.1452Z" fill="white"></path><path id="Vector_2" d="M29.5117 18.6713C29.5117 17.5203 29.7355 16.4972 30.1512 15.6339C30.5988 14.7707 31.2063 14.0993 31.9736 13.6516C32.7729 13.1721 33.6681 12.9482 34.7232 12.9482C36.3219 12.9482 37.5688 13.4278 38.432 14.387C39.2953 15.3462 39.7429 16.689 39.7429 18.4155V19.3108H32.2294C32.2933 20.206 32.5491 20.8455 32.9967 21.2931C33.4124 21.7087 34.0198 21.9325 34.7552 21.9325C36.0021 21.9325 36.7695 21.5169 37.0253 20.6536H39.647C39.1674 23.0196 37.5048 24.2026 34.6593 24.2026C31.8137 24.2026 31.7818 23.723 30.8546 22.7638C29.9593 21.8046 29.5117 20.4618 29.5117 18.7353V18.6713ZM36.4817 15.6979C36.0981 15.3142 35.5226 15.1543 34.7232 15.1543C33.9239 15.1543 33.3164 15.3782 32.9647 15.8258C32.6131 16.2734 32.3893 16.8169 32.2933 17.4883H37.1212C37.0892 16.689 36.8654 16.0816 36.4817 15.7299V15.6979Z" fill="white"></path><path id="Vector_3" d="M40.9272 13.268H43.6769V14.8986C44.1564 14.2591 44.7 13.7795 45.2755 13.4278C45.851 13.1081 46.5224 12.9482 47.2578 12.9482C48.4088 12.9482 49.304 13.2999 49.9115 14.0033C50.519 14.7067 50.8387 15.6979 50.8387 16.9768V23.8189H48.0251V17.5843C48.0251 16.8809 47.8653 16.3373 47.5775 16.0176C47.2898 15.6979 46.8422 15.538 46.2027 15.538C45.5632 15.538 45.5313 15.602 45.2115 15.7618C44.8918 15.9217 44.6041 16.1135 44.3483 16.4013C43.9007 16.8809 43.6769 17.4564 43.6769 18.1278V23.8509H40.8633V13.2999L40.9272 13.268Z" fill="white"></path><path id="Vector_4" d="M58.926 20.8132C58.926 20.4935 58.7981 20.2697 58.5424 20.1098C58.2866 19.95 57.807 19.8221 57.1036 19.6942L56.0165 19.5024C54.6097 19.2466 53.6186 18.8629 53.0111 18.3513C52.4036 17.8398 52.1159 17.1044 52.1159 16.1452C52.1159 15.1861 52.5315 14.3548 53.3308 13.7793C54.1302 13.2038 55.2492 12.916 56.688 12.916C58.1267 12.916 59.2777 13.1718 60.0131 13.7153C60.7485 14.2269 61.1961 14.9942 61.4199 15.9854L58.8301 16.2731C58.6063 15.4099 57.9029 14.9942 56.688 14.9942C55.473 14.9942 55.6009 15.0902 55.2492 15.282C54.8975 15.4738 54.7376 15.7296 54.7376 16.0813C54.7376 16.433 54.8655 16.5929 55.1213 16.7847C55.3771 16.9446 55.8247 17.0725 56.4961 17.2003L57.6791 17.3922C58.6702 17.552 59.4696 17.7758 60.0451 18.0636C60.6206 18.3194 61.0362 18.6711 61.26 19.0867C61.5158 19.5024 61.6117 20.0459 61.6117 20.6853C61.6117 22.9554 60.0451 24.1064 56.9118 24.1064C53.7785 24.1064 55.1852 24.0105 54.4499 23.7867C53.7145 23.5629 53.139 23.1792 52.6594 22.6676C52.2118 22.1561 51.924 21.4527 51.8281 20.5575H54.4818C54.6097 21.069 54.8655 21.4207 55.2812 21.6445C55.6968 21.8683 56.2084 21.9643 56.8798 21.9643C57.5512 21.9643 58.0628 21.8683 58.4145 21.6765C58.7662 21.4847 58.926 21.1969 58.926 20.8132Z" fill="white"></path><path id="Vector_5" d="M62.6992 13.268H65.4488V14.8346C65.8645 14.2271 66.3761 13.7476 66.9835 13.4278C67.591 13.1081 68.2624 12.9482 69.0298 12.9482C69.7971 12.9482 70.6604 13.1721 71.2998 13.6197C71.9393 14.0673 72.4508 14.7067 72.8025 15.538C73.1542 16.3693 73.3461 17.3285 73.3461 18.4155C73.3461 19.5026 73.1542 20.4938 72.8025 21.357C72.4189 22.2203 71.9073 22.8917 71.2039 23.4033C70.5005 23.8829 69.7012 24.1386 68.774 24.1386C67.3352 24.1386 66.2801 23.5951 65.5128 22.4761V27.7515L62.6992 28.9345V13.268ZM70.5005 18.5115C70.5005 17.5523 70.2767 16.7849 69.8611 16.2734C69.4454 15.7618 68.8379 15.4741 68.0706 15.4741C67.3033 15.4741 66.6958 15.7299 66.2162 16.2734C65.7366 16.7849 65.4808 17.4564 65.4808 18.2557V18.7672C65.4808 19.6305 65.7046 20.3019 66.1522 20.8455C66.5999 21.389 67.2074 21.6448 67.9427 21.6448C68.6781 21.6448 69.4134 21.389 69.8291 20.8455C70.2447 20.3019 70.4685 19.5346 70.4685 18.5434L70.5005 18.5115Z" fill="white"></path><path id="Vector_6" d="M73.8913 20.8772C73.8913 19.7262 74.307 18.8629 75.1383 18.2874C75.9696 17.7119 77.2485 17.3922 78.975 17.3602L81.0532 17.2963V16.8806C81.0532 15.6976 80.4137 15.0902 79.1029 15.0902C77.792 15.0902 77.1845 15.4738 76.9607 16.2731L74.4349 16.0174C74.7866 13.9711 76.3852 12.916 79.1988 12.916C82.0124 12.916 83.7069 14.3228 83.7069 17.1364V23.8187H81.1171V22.4119C80.6056 23.0193 80.094 23.435 79.4865 23.6908C78.911 23.9465 78.2396 24.0744 77.4723 24.0744C76.3213 24.0744 75.426 23.7867 74.7866 23.2432C74.1471 22.6996 73.8594 21.9003 73.8594 20.8452L73.8913 20.8772ZM76.5451 20.6214C76.5451 21.4847 77.1206 21.9003 78.2716 21.9003C79.4226 21.9003 79.1988 21.8044 79.6144 21.6126C80.0301 21.4207 80.3818 21.1649 80.6375 20.8452C80.8933 20.4935 81.0212 20.1098 81.0212 19.5983V19.0867L79.1029 19.1507C78.2076 19.1507 77.5682 19.3105 77.1525 19.5343C76.7369 19.7581 76.5451 20.1098 76.5451 20.5894V20.6214Z" fill="white"></path><path id="Vector_7" d="M85.2742 13.268H88.0238V14.9306C88.887 13.7156 89.9421 13.0762 91.1891 13.0762C92.436 13.0762 91.5088 13.0762 91.6687 13.0762C91.8285 13.0762 92.0204 13.1081 92.1802 13.1401L91.8605 15.7938C91.4768 15.7299 91.1251 15.6979 90.8374 15.6979C89.9741 15.6979 89.3027 15.9537 88.7911 16.4653C88.3115 16.9768 88.0558 17.5523 88.0558 18.2238V23.755H85.2422V13.2041L85.2742 13.268Z" fill="white"></path><path id="Vector_8" d="M92.8484 9.39941H95.662V16.849L99.5626 13.2681H103.048L99.2429 16.7211L103.431 23.819H100.298L97.2606 18.4476L95.63 19.9184V23.819H92.8164V9.39941H92.8484Z" fill="white"></path></g><path id="Vector_9" d="M12.4359 9.52782L16.4325 0L10.1339 8.31286L6.07337 3.58093L8.18355 9.55979L0.925781 10.7748L8.2475 12.0537L6.52098 17.2652L10.1659 13.2047L15.857 20.5264L12.4359 12.0856L20.6848 10.8067L12.4359 9.52782Z" fill="white"></path></g></g></svg> 