<?xml version="1.0" encoding="UTF-8"?> <svg xmlns="http://www.w3.org/2000/svg" width="81" height="30" viewBox="0 0 81 30" fill="none"><g id="Frame 1973341807"><g id="Group"><g id="Group_2"><path id="Vector" d="M71.1817 21.4952C71.9939 21.4952 72.6524 20.8367 72.6524 20.0244C72.6524 19.2122 71.9939 18.5537 71.1817 18.5537C70.3694 18.5537 69.7109 19.2122 69.7109 20.0244C69.7109 20.8367 70.3694 21.4952 71.1817 21.4952Z" fill="white"></path><path id="Vector_2" d="M76.2012 21.4952C77.0135 21.4952 77.6719 20.8367 77.6719 20.0244C77.6719 19.2122 77.0135 18.5537 76.2012 18.5537C75.389 18.5537 74.7305 19.2122 74.7305 20.0244C74.7305 20.8367 75.389 21.4952 76.2012 21.4952Z" fill="white"></path><path id="Vector_3" d="M72.0137 16.5714C72.826 16.5714 73.4844 15.9129 73.4844 15.1006C73.4844 14.2884 72.826 13.6299 72.0137 13.6299C71.2014 13.6299 70.543 14.2884 70.543 15.1006C70.543 15.9129 71.2014 16.5714 72.0137 16.5714Z" fill="white"></path><path id="Vector_4" d="M77.0332 16.5714C77.8455 16.5714 78.504 15.9129 78.504 15.1006C78.504 14.2884 77.8455 13.6299 77.0332 13.6299C76.221 13.6299 75.5625 14.2884 75.5625 15.1006C75.5625 15.9129 76.221 16.5714 77.0332 16.5714Z" fill="white"></path><path id="Vector_5" d="M62.8692 11.6153C63.6814 11.6153 64.3399 10.9568 64.3399 10.1446C64.3399 9.3323 63.6814 8.67383 62.8692 8.67383C62.0569 8.67383 61.3984 9.3323 61.3984 10.1446C61.3984 10.9568 62.0569 11.6153 62.8692 11.6153Z" fill="white"></path><path id="Vector_6" d="M67.8574 11.6153C68.6697 11.6153 69.3282 10.9568 69.3282 10.1446C69.3282 9.3323 68.6697 8.67383 67.8574 8.67383C67.0452 8.67383 66.3867 9.3323 66.3867 10.1446C66.3867 10.9568 67.0452 11.6153 67.8574 11.6153Z" fill="white"></path><path id="Vector_7" d="M72.8457 11.6153C73.658 11.6153 74.3165 10.9568 74.3165 10.1446C74.3165 9.3323 73.658 8.67383 72.8457 8.67383C72.0335 8.67383 71.375 9.3323 71.375 10.1446C71.375 10.9568 72.0335 11.6153 72.8457 11.6153Z" fill="white"></path><path id="Vector_8" d="M77.8653 11.6153C78.6775 11.6153 79.336 10.9568 79.336 10.1446C79.336 9.3323 78.6775 8.67383 77.8653 8.67383C77.053 8.67383 76.3945 9.3323 76.3945 10.1446C76.3945 10.9568 77.053 11.6153 77.8653 11.6153Z" fill="white"></path><path id="Vector_9" d="M63.6348 6.59577C64.4471 6.59577 65.1055 5.9373 65.1055 5.12504C65.1055 4.31277 64.4471 3.6543 63.6348 3.6543C62.8225 3.6543 62.1641 4.31277 62.1641 5.12504C62.1641 5.9373 62.8225 6.59577 63.6348 6.59577Z" fill="white"></path><path id="Vector_10" d="M68.6582 6.59577C69.4705 6.59577 70.129 5.9373 70.129 5.12504C70.129 4.31277 69.4705 3.6543 68.6582 3.6543C67.846 3.6543 67.1875 4.31277 67.1875 5.12504C67.1875 5.9373 67.846 6.59577 68.6582 6.59577Z" fill="white"></path><path id="Vector_11" d="M73.6778 6.59577C74.49 6.59577 75.1485 5.9373 75.1485 5.12504C75.1485 4.31277 74.49 3.6543 73.6778 3.6543C72.8655 3.6543 72.207 4.31277 72.207 5.12504C72.207 5.9373 72.8655 6.59577 73.6778 6.59577Z" fill="white"></path><path id="Vector_12" d="M78.6973 6.59577C79.5096 6.59577 80.168 5.9373 80.168 5.12504C80.168 4.31277 79.5096 3.6543 78.6973 3.6543C77.885 3.6543 77.2266 4.31277 77.2266 5.12504C77.2266 5.9373 77.885 6.59577 78.6973 6.59577Z" fill="white"></path></g><g id="Group_3"><path id="Vector_13" d="M0.806127 19.6085C0.806127 18.3936 1.06191 17.3385 1.5415 16.4433C2.05306 15.548 2.75645 14.8766 3.65168 14.429C4.57889 13.9494 5.66596 13.7256 6.91288 13.7256C8.15981 13.7256 8.92716 13.8854 9.6945 14.2371C10.4299 14.5888 11.0373 15.0684 11.453 15.6439C11.9006 16.2514 12.1884 16.9228 12.3162 17.6902L9.21491 18.0738C8.92716 16.8909 8.15981 16.3154 6.91288 16.3154C5.66596 16.3154 5.31426 16.6031 4.83467 17.1466C4.35508 17.6902 4.0993 18.4895 4.0993 19.5446C4.0993 20.5997 4.35508 21.367 4.83467 21.9106C5.31426 22.4541 6.01766 22.7418 6.94486 22.7418C8.38362 22.7418 9.18294 22.1344 9.37477 20.9194H12.4761C12.2843 22.2623 11.7407 23.3493 10.8135 24.1486C9.88634 24.9479 8.57545 25.3636 6.84894 25.3636C5.12242 25.3636 3.36393 24.852 2.30884 23.8289C1.25375 22.8058 0.742188 21.399 0.742188 19.6085H0.806127Z" fill="white"></path><path id="Vector_14" d="M13.1179 19.6725C13.1179 18.4575 13.3737 17.4024 13.8853 16.5392C14.3968 15.6439 15.1002 14.9725 15.9954 14.461C16.9226 13.9814 17.9777 13.7256 19.1607 13.7256C21.0151 13.7256 22.4539 14.2052 23.477 15.1963C24.5001 16.1875 24.9797 17.5623 24.9797 19.3847V20.3439H16.2512C16.3471 21.2711 16.6349 21.9425 17.1465 22.3901C17.658 22.8378 18.3294 23.0616 19.1927 23.0616C20.6315 23.0616 21.5267 22.614 21.8144 21.7187H24.8518C24.3083 24.1806 22.358 25.3956 19.0648 25.3956C15.7716 25.3956 15.7077 24.884 14.6526 23.8929C13.5975 22.9017 13.0859 21.4949 13.0859 19.7044L13.1179 19.6725ZM21.207 16.6031C20.7594 16.2194 20.0879 16.0276 19.1607 16.0276C18.2335 16.0276 17.5301 16.2514 17.1145 16.731C16.6988 17.1786 16.4431 17.7541 16.3471 18.4575H21.9423C21.8784 17.6262 21.6546 16.9868 21.207 16.6031Z" fill="white"></path><path id="Vector_15" d="M26.2891 10.0166H29.5503V25.0437H26.2891V10.0166Z" fill="white"></path><path id="Vector_16" d="M38.8849 21.9103C38.8849 21.5906 38.725 21.3348 38.4373 21.1749C38.1495 21.0151 37.5741 20.8552 36.7747 20.7273L35.5278 20.5035C33.8972 20.2477 32.7462 19.8321 32.0428 19.3205C31.3394 18.809 30.9877 18.0416 30.9877 17.0505C30.9877 16.0593 31.4673 15.1641 32.3945 14.5886C33.3217 14.0131 34.6326 13.6934 36.2951 13.6934C37.9577 13.6934 39.3006 13.9811 40.1638 14.5246C40.9951 15.0682 41.5386 15.8675 41.7944 16.8906L38.789 17.2103C38.5332 16.3151 37.7019 15.8995 36.2951 15.8995C34.8884 15.8995 35.0162 15.9954 34.6326 16.2192C34.2489 16.411 34.0571 16.6988 34.0571 17.0505C34.0571 17.4022 34.2169 17.594 34.5047 17.7539C34.7924 17.9137 35.336 18.0736 36.1033 18.2015L37.4462 18.4253C38.6291 18.6171 39.5244 18.8409 40.1958 19.0967C40.8672 19.3845 41.3148 19.7362 41.6026 20.1518C41.8903 20.5994 42.0182 21.143 42.0182 21.8144C42.0182 24.1804 40.1958 25.3633 36.5509 25.3633C32.9061 25.3633 34.5686 25.2354 33.7054 25.0116C32.8421 24.7878 32.1707 24.4042 31.6271 23.8606C31.0836 23.3171 30.7639 22.5817 30.668 21.6545H33.7373C33.8972 22.1661 34.1849 22.5498 34.6645 22.7736C35.1441 22.9974 35.7516 23.1253 36.5189 23.1253C37.2863 23.1253 37.8938 23.0293 38.2774 22.8055C38.6931 22.6137 38.8849 22.294 38.8849 21.9103Z" fill="white"></path><path id="Vector_17" d="M43.1367 14.0449H46.3979V25.0115H43.1367V14.0449Z" fill="white"></path><path id="Vector_18" d="M47.6133 19.5766C47.6133 18.3616 47.8691 17.3065 48.3806 16.4433C48.8922 15.58 49.6275 14.9086 50.5867 14.429C51.5459 13.9494 52.6649 13.7256 53.9438 13.7256C55.8942 13.7256 57.4289 14.2371 58.5159 15.2283C59.603 16.2514 60.1465 17.6582 60.1465 19.5126C60.1465 21.367 59.8907 21.7507 59.3792 22.6459C58.8676 23.5092 58.1322 24.2126 57.205 24.6602C56.2459 25.1398 55.1268 25.3636 53.8479 25.3636C51.8976 25.3636 50.3949 24.852 49.3078 23.8289C48.2208 22.8058 47.6772 21.399 47.6772 19.5766H47.6133ZM50.9704 19.5446C50.9704 20.5677 51.2262 21.367 51.7058 21.9106C52.2173 22.4541 52.9207 22.7418 53.8479 22.7418C54.7751 22.7418 55.5105 22.4541 56.0221 21.9106C56.5336 21.367 56.7894 20.5677 56.7894 19.5446C56.7894 18.5215 56.5336 17.7221 56.0221 17.1466C55.5105 16.6031 54.8071 16.3154 53.8799 16.3154C52.9527 16.3154 52.2173 16.6031 51.7377 17.1466C51.2262 17.6902 50.9704 18.4895 50.9704 19.5446Z" fill="white"></path><path id="Vector_19" d="M61.332 14.0454H64.5293V15.7719C65.5204 14.493 66.7354 13.8535 68.2061 13.8535C69.6769 13.8535 68.5898 13.8535 68.7816 13.8535C68.9735 13.8535 69.1973 13.8855 69.3891 13.9175L69.0054 16.6991C68.5578 16.6351 68.1422 16.6032 67.7905 16.6032C66.7993 16.6032 66 16.8589 65.4245 17.4025C64.849 17.914 64.5932 18.5215 64.5932 19.2249V24.98H61.332V14.0134V14.0454Z" fill="white"></path></g><path id="Vector_20" d="M44.7712 9.85645H44.7393C43.8564 9.85645 43.1406 10.5722 43.1406 11.4551V11.487C43.1406 12.3699 43.8564 13.0857 44.7393 13.0857H44.7712C45.6541 13.0857 46.3699 12.3699 46.3699 11.487V11.4551C46.3699 10.5722 45.6541 9.85645 44.7712 9.85645Z" fill="white"></path></g></g></svg> 