<?xml version="1.0" encoding="UTF-8"?> <svg xmlns="http://www.w3.org/2000/svg" width="100" height="32" viewBox="0 0 100 32" fill="none"><path d="M83.3509 5.27563L77.661 13.8239C77.643 13.8509 77.634 13.8869 77.634 13.9318V14.1386L83.3599 8.61047L93.6071 19.6756C93.652 19.7206 94.1823 19.7565 94.47 19.7565H95.0093C96.2138 19.7565 97.1936 18.7768 97.1936 17.5723C97.1936 17.5723 97.2206 17.0689 97.1936 16.7633C97.1666 16.3768 97.0498 15.8644 97.0048 15.8284L83.3599 5.28462L83.3509 5.27563Z" fill="white"></path><path d="M2.32739 7.65731H5.10492V8.96967C5.5184 8.44833 6.02177 8.05282 6.642 7.78316C7.25324 7.51349 7.94537 7.37866 8.70941 7.37866C9.47346 7.37866 10.3454 7.57641 10.9926 7.96293C11.6398 8.34945 12.1431 8.88877 12.5117 9.57192C12.8712 10.2641 13.06 11.073 13.06 11.9989C13.06 12.9247 12.8712 13.7607 12.4937 14.4888C12.1162 15.2169 11.5858 15.7921 10.8937 16.2056C10.2015 16.6191 9.38357 16.8259 8.43975 16.8259C7.01054 16.8259 5.91391 16.3584 5.16784 15.4056V19.8551H2.33638V7.65731H2.32739ZM10.1656 12.0798C10.1656 11.2618 9.94986 10.6326 9.52739 10.1832C9.10492 9.74271 8.49368 9.51799 7.71166 9.51799C6.92964 9.51799 6.34537 9.74271 5.85998 10.1832C5.37458 10.6236 5.13189 11.1809 5.13189 11.8551V12.2775C5.13189 12.9966 5.35661 13.5809 5.80604 14.0303C6.25548 14.4798 6.85773 14.7045 7.62177 14.7045C8.38582 14.7045 9.09593 14.4798 9.52739 14.0303C9.94986 13.5809 10.1656 12.9337 10.1656 12.0798Z" fill="white"></path><path d="M13.8165 17.7621C14.0323 17.834 14.239 17.879 14.4368 17.9059C14.6345 17.9329 14.8413 17.9509 15.057 17.9509C15.4705 17.9509 15.8031 17.861 16.0637 17.6812C16.3244 17.5014 16.5671 17.1868 16.7828 16.7464L17.1424 16.0093L12.7559 7.66772H15.839L18.4817 13.5014L20.8997 7.66772H23.866L19.3087 17.052C18.9311 17.825 18.5716 18.4363 18.23 18.8767C17.8795 19.3172 17.5019 19.6318 17.0795 19.8026C16.657 19.9823 16.1446 20.0632 15.5424 20.0632C14.9401 20.0632 14.7783 20.0363 14.4547 19.9823C14.1222 19.9284 13.7716 19.8295 13.3941 19.6947L13.8075 17.7711L13.8165 17.7621Z" fill="white"></path><path d="M24.5283 7.65745H27.3058V9.0597C28.1597 8.02599 29.2204 7.50464 30.4968 7.50464C31.7732 7.50464 30.8204 7.50464 30.9912 7.53161C31.162 7.54958 31.3418 7.56756 31.5215 7.59453L31.1979 9.85071C30.8024 9.79677 30.4519 9.76981 30.1552 9.76981C29.2923 9.76981 28.6002 9.98554 28.0878 10.417C27.6024 10.8395 27.3507 11.3339 27.3507 11.9001V16.5743H24.5193V7.66644L24.5283 7.65745Z" fill="white"></path><path d="M31.5417 14.0763C31.5417 13.1055 31.9552 12.3864 32.7822 11.901C33.6092 11.4156 34.9035 11.155 36.6564 11.11L38.7507 11.0561V10.7145C38.7507 9.71676 38.0946 9.21339 36.7912 9.21339C35.4878 9.21339 34.8676 9.54598 34.6249 10.2022L32.0811 9.99541C32.4316 8.25159 34.0406 7.38867 36.8901 7.38867C39.7395 7.38867 41.4294 8.57519 41.4294 10.9392V16.5662H38.8406V15.3887C38.3373 15.892 37.7979 16.2516 37.2137 16.4763C36.6294 16.701 35.9552 16.8089 35.1912 16.8089C34.0226 16.8089 33.1238 16.5752 32.4856 16.0988C31.8564 15.6314 31.5417 14.9572 31.5417 14.0763ZM34.2384 13.8696C34.2384 14.5977 34.8137 14.9572 35.9732 14.9572C37.1328 14.9572 36.8991 14.8763 37.3215 14.7235C37.744 14.5707 38.0856 14.355 38.3552 14.0673C38.6249 13.7797 38.7597 13.4381 38.7597 13.0246V12.6022L36.8361 12.6561C35.9373 12.6831 35.2811 12.7909 34.8676 12.9797C34.4541 13.1774 34.2474 13.4651 34.2474 13.8696H34.2384Z" fill="white"></path><path d="M43.073 7.65833H45.8505V9.02463C46.282 8.50328 46.7674 8.09878 47.3157 7.81114C47.864 7.5235 48.4752 7.38867 49.1584 7.38867C50.6685 7.38867 51.6663 7.95496 52.1606 9.09654C53.0775 7.95496 54.273 7.38867 55.7382 7.38867C57.2033 7.38867 57.6348 7.6853 58.2101 8.26957C58.7854 8.85384 59.082 9.6898 59.082 10.7864V16.5662H56.2325V11.2628C56.2325 10.6696 56.1157 10.2381 55.873 9.97744C55.6303 9.70777 55.2438 9.57294 54.6955 9.57294C54.1472 9.57294 53.5539 9.79766 53.0775 10.2381C52.682 10.6066 52.4842 11.0381 52.4842 11.5325V16.5662H49.6528V11.2628C49.6528 10.6696 49.5269 10.2381 49.2842 9.97744C49.0415 9.70777 48.646 9.57294 48.1157 9.57294C47.5854 9.57294 46.9472 9.81564 46.4977 10.292C46.1022 10.6696 45.9045 11.137 45.9045 11.6943V16.5752H43.073V7.66732V7.65833Z" fill="white"></path><path d="M60.7114 4.26025H63.5968V6.30969H60.7114V4.26025ZM60.7294 7.65801H63.5609V16.5659H60.7294V7.65801Z" fill="white"></path><path d="M64.7961 12.2157C64.7961 11.2719 64.9849 10.4359 65.3624 9.71681C65.7399 8.99771 66.2703 8.42243 66.9624 8.00895C67.6545 7.59546 68.4815 7.38872 69.4343 7.38872C70.8545 7.38872 71.9422 7.85614 72.7062 8.79097V4.38647H75.5377V16.5662H72.7601V15.2539C72.3467 15.7752 71.8433 16.1707 71.2231 16.4404C70.6118 16.7101 69.9197 16.8449 69.1557 16.8449C68.3916 16.8449 67.5197 16.6471 66.8635 16.2606C66.2073 15.8741 65.704 15.3348 65.3354 14.6427C64.9759 13.9505 64.7871 13.1415 64.7871 12.2157H64.7961ZM67.6995 12.1438C67.6995 12.9618 67.9062 13.591 68.3287 14.0404C68.7512 14.4809 69.3534 14.7056 70.1534 14.7056C70.9534 14.7056 71.0972 14.6067 71.4837 14.4C71.8703 14.1932 72.1759 13.9146 72.3916 13.555C72.6163 13.1955 72.7242 12.8 72.7242 12.3505V11.928C72.7242 11.2089 72.4995 10.6337 72.05 10.1842C71.6006 9.74378 70.9894 9.51906 70.2163 9.51906C69.4433 9.51906 68.7601 9.74378 68.3287 10.1932C67.9062 10.6427 67.6905 11.2898 67.6905 12.1438H67.6995Z" fill="white"></path><path d="M24.5134 20.0625H31.9741V20.7007H28.6842V27.7299H27.9561V20.7007H24.5134V20.0625Z" fill="white"></path><path d="M39.8613 20.0625L43.7264 27.7389H42.9354L41.9467 25.7524H37.0029L36.0231 27.7389H35.259L39.0253 20.0625H39.8523H39.8613ZM39.4478 20.7546L37.2995 25.1501H41.6411L39.4478 20.7546Z" fill="white"></path><path d="M48.331 20.0625V27.0917H53.913V27.7299H47.5759V20.0535H48.322L48.331 20.0625Z" fill="white"></path><path d="M58.1831 20.0625H65.5269V20.7007H58.9292V23.3883H65.0236V24.0265H58.9292V27.0917H65.8415V27.7299H58.1831V20.0535V20.0625Z" fill="white"></path><path d="M77.2318 20.0625V27.7389H76.5486L69.9778 21.0423V27.7389H69.2947V20.0625H69.9778L76.5486 26.7861V20.0625H77.2318Z" fill="white"></path><path d="M80.7856 20.0625H88.2463V20.7007H84.9564V27.7299H84.2283V20.7007H80.7856V20.0625Z" fill="white"></path></svg> 